<?xml version="1.0" encoding="UTF-8"?>
<svg version="1.1" xmlns="http://www.w3.org/2000/svg" width="50" height="50">
<path d="M0 0 C1.98 0 3.96 0 6 0 C6.33 0.99 6.66 1.98 7 3 C11.95 3 16.9 3 22 3 C22 17.85 22 32.7 22 48 C9.46 48 -3.08 48 -16 48 C-16 33.15 -16 18.3 -16 3 C-11.05 3 -6.1 3 -1 3 C-0.67 2.01 -0.34 1.02 0 0 Z M-3 5 C-3 5.66 -3 6.32 -3 7 C0.96 7 4.92 7 9 7 C9 6.34 9 5.68 9 5 C4.224647 3.31458129 1.55270882 2.51670428 -3 5 Z M-14 6 C-14.10106874 8.87264056 -14.13969672 11.72073628 -14.1328125 14.59375 C-14.13376923 15.45560913 -14.13472595 16.31746826 -14.13571167 17.20544434 C-14.1363935 19.03133212 -14.13453904 20.85722231 -14.13037109 22.68310547 C-14.12502286 25.48801078 -14.13031599 28.29275595 -14.13671875 31.09765625 C-14.13605797 32.86718786 -14.13477681 34.63671936 -14.1328125 36.40625 C-14.13483673 37.25102905 -14.13686096 38.09580811 -14.13894653 38.96618652 C-14.49924511 42.7918686 -14.49924511 42.7918686 -13 46 C-10.63601532 46.1007812 -8.30188689 46.13973215 -5.9375 46.1328125 C-5.23101318 46.13376923 -4.52452637 46.13472595 -3.79663086 46.13571167 C-2.30029207 46.13639333 -0.80395033 46.13454005 0.69238281 46.13037109 C2.99030157 46.12502257 5.28802486 46.13031651 7.5859375 46.13671875 C9.03645877 46.13605797 10.48697991 46.1347768 11.9375 46.1328125 C12.6291626 46.13483673 13.3208252 46.13686096 14.03344727 46.13894653 C17.29735638 46.40230733 17.29735638 46.40230733 20 45 C20.10106874 42.12735944 20.13969672 39.27926372 20.1328125 36.40625 C20.13376923 35.54439087 20.13472595 34.68253174 20.13571167 33.79455566 C20.1363935 31.96866788 20.13453904 30.14277769 20.13037109 28.31689453 C20.12502286 25.51198922 20.13031599 22.70724405 20.13671875 19.90234375 C20.13605797 18.13281214 20.13477681 16.36328064 20.1328125 14.59375 C20.13483673 13.74897095 20.13686096 12.90419189 20.13894653 12.03381348 C20.49924511 8.2081314 20.49924511 8.2081314 19 5 C16.32941149 4.85884839 13.67567762 4.95752893 11 5 C11 6.32 11 7.64 11 9 C5.72 9 0.44 9 -5 9 C-5 7.68 -5 6.36 -5 5 C-9.79970742 4.47166284 -9.79970742 4.47166284 -14 6 Z " fill="#000000" transform="translate(22,0)"/>
<path d="M0 0 C0.99 0.33 1.98 0.66 3 1 C1.87548273 3.9719385 0.77706209 6.33440687 -1 9 C-2.65 8.67 -4.3 8.34 -6 8 C-6.33 6.68 -6.66 5.36 -7 4 C-5.824375 3.8453125 -5.824375 3.8453125 -4.625 3.6875 C-1.66954819 3.22404978 -1.66954819 3.22404978 0 0 Z " fill="#000000" transform="translate(35,29)"/>
<path d="M0 0 C0.99 0.33 1.98 0.66 3 1 C1.87548273 3.9719385 0.77706209 6.33440687 -1 9 C-2.65 8.67 -4.3 8.34 -6 8 C-6.33 6.68 -6.66 5.36 -7 4 C-5.824375 3.8453125 -5.824375 3.8453125 -4.625 3.6875 C-1.66954819 3.22404978 -1.66954819 3.22404978 0 0 Z " fill="#000000" transform="translate(35,16)"/>
<path d="M0 0 C4.29 0 8.58 0 13 0 C13 0.66 13 1.32 13 2 C8.71 2 4.42 2 0 2 C0 1.34 0 0.68 0 0 Z " fill="#000000" transform="translate(12,33)"/>
<path d="M0 0 C4.29 0 8.58 0 13 0 C13 0.66 13 1.32 13 2 C8.71 2 4.42 2 0 2 C0 1.34 0 0.68 0 0 Z " fill="#000000" transform="translate(12,20)"/>
</svg>
