<?xml version="1.0" encoding="UTF-8"?>
<svg version="1.1" xmlns="http://www.w3.org/2000/svg" width="50" height="50">
<path d="M0 0 C3.3 0 6.6 0 10 0 C10 9.24 10 18.48 10 28 C10.99 28 11.98 28 13 28 C13 22.06 13 16.12 13 10 C16.3 10 19.6 10 23 10 C23 13.96 23 17.92 23 22 C24.65 22.33 26.3 22.66 28 23 C28.5 25.5703125 28.5 25.5703125 28 29 C25.66697025 31.72964481 22.88294446 33.75476464 20 35.875 C19.25621094 36.46796875 18.51242188 37.0609375 17.74609375 37.671875 C12.58580119 41.56677408 9.45255339 42.8251693 3 42 C0.4609375 41.34375 0.4609375 41.34375 -1.625 40.5 C-5.23394665 39.1870901 -8.11545475 38.53755414 -12 39 C-12.99 39.66 -13.98 40.32 -15 41 C-17.1875 40.625 -17.1875 40.625 -19 40 C-14.24590164 35.08743169 -14.24590164 35.08743169 -9.4375 34.75 C-6.10996849 34.76808441 -3.54634208 35.39668422 -0.4375 36.5625 C3.85116289 38.15585739 6.57451221 38.03575246 11 37 C10.14535156 36.81824219 9.29070313 36.63648438 8.41015625 36.44921875 C6.75306641 36.07216797 6.75306641 36.07216797 5.0625 35.6875 C3.96035156 35.44386719 2.85820312 35.20023438 1.72265625 34.94921875 C0.82417969 34.63597656 -0.07429688 34.32273438 -1 34 C-1.33 33.01 -1.66 32.02 -2 31 C1.63 31.33 5.26 31.66 9 32 C2.48837542 28.64842852 -2.61091568 26.10821396 -10 27 C-12.73774618 27.92745649 -12.73774618 27.92745649 -15 29 C-15.99 29 -16.98 29 -18 29 C-18 28.01 -18 27.02 -18 26 C-16.68 25.34 -15.36 24.68 -14 24 C-13.505 15.09 -13.505 15.09 -13 6 C-9.7 6 -6.4 6 -3 6 C-3 11.61 -3 17.22 -3 23 C-2.34 23 -1.68 23 -1 23 C-0.67 15.41 -0.34 7.82 0 0 Z M2 2 C2 9.59 2 17.18 2 25 C3.32 25 4.64 25 6 25 C6 25.66 6 26.32 6 27 C6.66 27 7.32 27 8 27 C8 18.75 8 10.5 8 2 C6.02 2 4.04 2 2 2 Z M-11 8 C-11 12.95 -11 17.9 -11 23 C-9.02 23 -7.04 23 -5 23 C-5 18.05 -5 13.1 -5 8 C-6.98 8 -8.96 8 -11 8 Z M15 12 C15 16.62 15 21.24 15 26 C16.98 25.01 18.96 24.02 21 23 C21 19.37 21 15.74 21 12 C19.02 12 17.04 12 15 12 Z M17.3125 27.75 C16.50425781 28.26046875 15.69601563 28.7709375 14.86328125 29.296875 C14.24839844 29.85890625 13.63351563 30.4209375 13 31 C13 32.32 13 33.64 13 35 C15.99254618 33.59808647 18.5954611 31.96632511 21.25 30 C22.30960938 29.2265625 22.30960938 29.2265625 23.390625 28.4375 C23.92171875 27.963125 24.4528125 27.48875 25 27 C25 26.34 25 25.68 25 25 C21.45162603 25 20.24987942 25.83904785 17.3125 27.75 Z " fill="#000000" transform="translate(20,4)"/>
<path d="M0 0 C0.66 0 1.32 0 2 0 C2 0.66 2 1.32 2 2 C1.34 2 0.68 2 0 2 C0 1.34 0 0.68 0 0 Z " fill="#000000" transform="translate(24,23)"/>
<path d="M0 0 C0.66 0 1.32 0 2 0 C2 0.66 2 1.32 2 2 C1.34 2 0.68 2 0 2 C0 1.34 0 0.68 0 0 Z " fill="#000000" transform="translate(24,17)"/>
<path d="M0 0 C0.66 0 1.32 0 2 0 C2 0.66 2 1.32 2 2 C1.34 2 0.68 2 0 2 C0 1.34 0 0.68 0 0 Z " fill="#000000" transform="translate(24,11)"/>
</svg>
