<?xml version="1.0" encoding="UTF-8"?>
<svg version="1.1" xmlns="http://www.w3.org/2000/svg" width="80" height="80">
<path d="M0 0 C5.32379731 2.79320307 9.96600694 7.64802081 11.8671875 13.3515625 C12.14192838 16.51354581 12.14433127 19.67893002 12.1796875 22.8515625 C12.20869141 23.71910156 12.23769531 24.58664063 12.26757812 25.48046875 C12.29125834 27.83756112 12.26887079 30.02825863 11.8671875 32.3515625 C9.9453125 34.23046875 9.9453125 34.23046875 7.8671875 35.3515625 C6.81671106 37.66261068 5.81711312 39.99739901 4.8671875 42.3515625 C3.3046875 44.7890625 3.3046875 44.7890625 1.8671875 46.3515625 C1.2071875 46.3515625 0.5471875 46.3515625 -0.1328125 46.3515625 C-0.1328125 48.0015625 -0.1328125 49.6515625 -0.1328125 51.3515625 C0.66382813 51.31675781 1.46046875 51.28195313 2.28125 51.24609375 C9.79211585 51.05421032 14.58730863 51.24430883 20.2421875 56.6015625 C21.8671875 59.3515625 21.8671875 59.3515625 21.8671875 66.3515625 C2.0671875 66.3515625 -17.7328125 66.3515625 -38.1328125 66.3515625 C-38.1328125 59.3515625 -38.1328125 59.3515625 -35.9453125 56.0390625 C-31.47415174 51.76662 -27.91421267 51.09263063 -21.8203125 51.2265625 C-20.75167969 51.24460938 -19.68304687 51.26265625 -18.58203125 51.28125 C-17.36966797 51.31605469 -17.36966797 51.31605469 -16.1328125 51.3515625 C-16.1328125 49.7015625 -16.1328125 48.0515625 -16.1328125 46.3515625 C-16.7309375 46.1246875 -17.3290625 45.8978125 -17.9453125 45.6640625 C-20.75426509 43.97869095 -21.67898889 42.25920971 -23.1328125 39.3515625 C-23.349375 38.2996875 -23.349375 38.2996875 -23.5703125 37.2265625 C-23.7559375 36.6078125 -23.9415625 35.9890625 -24.1328125 35.3515625 C-24.79539062 35.00996094 -25.45796875 34.66835938 -26.140625 34.31640625 C-28.50107698 31.98835263 -28.46262351 31.32243662 -28.62890625 28.11328125 C-28.63023502 26.42176276 -28.60987683 24.73011875 -28.5703125 23.0390625 C-28.57740234 22.19666016 -28.58449219 21.35425781 -28.59179688 20.48632812 C-28.52893088 14.30128138 -27.54203434 9.94050452 -23.1953125 5.26953125 C-22.5146875 4.69847656 -21.8340625 4.12742187 -21.1328125 3.5390625 C-20.4521875 2.95511719 -19.7715625 2.37117187 -19.0703125 1.76953125 C-13.97922744 -1.95640398 -5.87255622 -1.78542918 0 0 Z M-21.5078125 8.7890625 C-24.46948204 13.45938755 -25.39120023 16.79622625 -25.1328125 22.3515625 C-24.4728125 22.0215625 -23.8128125 21.6915625 -23.1328125 21.3515625 C-23.1328125 19.7015625 -23.1328125 18.0515625 -23.1328125 16.3515625 C-22.3490625 16.2896875 -21.5653125 16.2278125 -20.7578125 16.1640625 C-19.4584375 15.761875 -19.4584375 15.761875 -18.1328125 15.3515625 C-16.94062408 12.85064288 -16.94062408 12.85064288 -16.1328125 10.3515625 C-15.39417969 10.7846875 -14.65554687 11.2178125 -13.89453125 11.6640625 C-6.68882081 15.61942071 -1.33654159 17.22361244 6.8671875 16.3515625 C6.8671875 18.0015625 6.8671875 19.6515625 6.8671875 21.3515625 C7.5271875 21.6815625 8.1871875 22.0115625 8.8671875 22.3515625 C8.59822119 16.29982053 7.95812291 12.10589285 3.8671875 7.3515625 C-4.51268071 0.14097822 -13.97427852 1.05727762 -21.5078125 8.7890625 Z M-14.1328125 15.3515625 C-15.6178125 16.8365625 -15.6178125 16.8365625 -17.1328125 18.3515625 C-18.1228125 18.6815625 -19.1128125 19.0115625 -20.1328125 19.3515625 C-19.8028125 20.3415625 -19.4728125 21.3315625 -19.1328125 22.3515625 C-16.1628125 21.6915625 -13.1928125 21.0315625 -10.1328125 20.3515625 C-10.7928125 22.6615625 -11.4528125 24.9715625 -12.1328125 27.3515625 C-13.7828125 27.6815625 -15.4328125 28.0115625 -17.1328125 28.3515625 C-17.1328125 27.3615625 -17.1328125 26.3715625 -17.1328125 25.3515625 C-18.1228125 25.0215625 -19.1128125 24.6915625 -20.1328125 24.3515625 C-20.1328125 27.3215625 -20.1328125 30.2915625 -20.1328125 33.3515625 C-19.0190625 33.1040625 -19.0190625 33.1040625 -17.8828125 32.8515625 C-10.70376024 31.89435553 -3.23111848 31.77416117 3.8671875 33.3515625 C3.8671875 30.3815625 3.8671875 27.4115625 3.8671875 24.3515625 C2.8771875 24.6815625 1.8871875 25.0115625 0.8671875 25.3515625 C0.8671875 26.3415625 0.8671875 27.3315625 0.8671875 28.3515625 C-1.6078125 27.8565625 -1.6078125 27.8565625 -4.1328125 27.3515625 C-4.7928125 25.0415625 -5.4528125 22.7315625 -6.1328125 20.3515625 C-5.1428125 20.0215625 -4.1528125 19.6915625 -3.1328125 19.3515625 C-6.7628125 18.0315625 -10.3928125 16.7115625 -14.1328125 15.3515625 Z M-3.1328125 20.3515625 C-3.1328125 20.6815625 -3.1328125 21.0115625 -3.1328125 21.3515625 C-0.8228125 21.6815625 1.4871875 22.0115625 3.8671875 22.3515625 C3.8671875 21.6915625 3.8671875 21.0315625 3.8671875 20.3515625 C1.5571875 20.3515625 -0.7528125 20.3515625 -3.1328125 20.3515625 Z M-24.1328125 25.3515625 C-24.8142948 27.24335453 -24.8142948 27.24335453 -25.1328125 29.3515625 C-24.4728125 30.0115625 -23.8128125 30.6715625 -23.1328125 31.3515625 C-23.1328125 29.3715625 -23.1328125 27.3915625 -23.1328125 25.3515625 C-23.4628125 25.3515625 -23.7928125 25.3515625 -24.1328125 25.3515625 Z M6.8671875 25.3515625 C6.8671875 27.3315625 6.8671875 29.3115625 6.8671875 31.3515625 C7.5271875 30.0315625 8.1871875 28.7115625 8.8671875 27.3515625 C8.2071875 26.6915625 7.5471875 26.0315625 6.8671875 25.3515625 Z M-10.1328125 34.3515625 C-10.1328125 34.6815625 -10.1328125 35.0115625 -10.1328125 35.3515625 C-8.4828125 35.3515625 -6.8328125 35.3515625 -5.1328125 35.3515625 C-5.1328125 35.0215625 -5.1328125 34.6915625 -5.1328125 34.3515625 C-6.7828125 34.3515625 -8.4328125 34.3515625 -10.1328125 34.3515625 Z M-14.1328125 35.3515625 C-15.54858727 36.53580576 -15.54858727 36.53580576 -15.1953125 39.9140625 C-15.1746875 41.0484375 -15.1540625 42.1828125 -15.1328125 43.3515625 C-10.44381029 45.84259492 -7.19124166 45.27894118 -2.1328125 44.3515625 C-0.71703773 43.16731924 -0.71703773 43.16731924 -1.0703125 39.7890625 C-1.0909375 38.6546875 -1.1115625 37.5203125 -1.1328125 36.3515625 C-1.7928125 36.0215625 -2.4528125 35.6915625 -3.1328125 35.3515625 C-3.1328125 36.3415625 -3.1328125 37.3315625 -3.1328125 38.3515625 C-6.4328125 38.3515625 -9.7328125 38.3515625 -13.1328125 38.3515625 C-13.4628125 37.3615625 -13.7928125 36.3715625 -14.1328125 35.3515625 Z M-19.1328125 36.3515625 C-18.1328125 38.3515625 -18.1328125 38.3515625 -18.1328125 38.3515625 Z M1.8671875 36.3515625 C2.8671875 38.3515625 2.8671875 38.3515625 2.8671875 38.3515625 Z M-13.1328125 48.3515625 C-13.7928125 50.6615625 -14.4528125 52.9715625 -15.1328125 55.3515625 C-11.96891156 57.74845715 -10.48355234 58.36345199 -6.4453125 58.2265625 C-2.86855995 57.67320855 -2.86855995 57.67320855 -1.1328125 54.3515625 C-1.93685713 51.188714 -1.93685713 51.188714 -3.1328125 48.3515625 C-6.4328125 48.3515625 -9.7328125 48.3515625 -13.1328125 48.3515625 Z M-34.1328125 59.3515625 C-35.00246756 61.48102853 -35.00246756 61.48102853 -35.1328125 63.3515625 C-33.4828125 63.3515625 -31.8328125 63.3515625 -30.1328125 63.3515625 C-30.1328125 62.0315625 -30.1328125 60.7115625 -30.1328125 59.3515625 C-28.8128125 59.3515625 -27.4928125 59.3515625 -26.1328125 59.3515625 C-26.1328125 60.6715625 -26.1328125 61.9915625 -26.1328125 63.3515625 C-14.2528125 63.3515625 -2.3728125 63.3515625 9.8671875 63.3515625 C9.8671875 62.0315625 9.8671875 60.7115625 9.8671875 59.3515625 C11.1871875 59.3515625 12.5071875 59.3515625 13.8671875 59.3515625 C13.8671875 60.6715625 13.8671875 61.9915625 13.8671875 63.3515625 C15.5171875 63.3515625 17.1671875 63.3515625 18.8671875 63.3515625 C17.58582601 59.40069791 16.43687691 57.49953078 12.8671875 55.3515625 C9.14741075 54.69513131 5.59064965 54.70700645 1.8671875 55.3515625 C0.908125 56.5890625 0.908125 56.5890625 -0.0703125 57.8515625 C-2.1328125 60.3515625 -2.1328125 60.3515625 -4.88671875 60.859375 C-8.09299691 60.97512511 -10.97601467 60.93366706 -14.1328125 60.3515625 C-15.49109221 58.70516285 -16.82535501 57.03860443 -18.1328125 55.3515625 C-24.26111185 54.18929883 -29.92421357 54.30124378 -34.1328125 59.3515625 Z " fill="#000000" transform="translate(48.1328125,11.6484375)"/>
<path d="M0 0 C0.390625 5.95703125 0.390625 5.95703125 0 8 C-2.14452736 10.21933646 -3.53009621 10.92759791 -6.5859375 11.3984375 C-13.21403785 11.34273918 -18.09394663 10.90605337 -23 6 C-23.4375 3.125 -23.4375 3.125 -23 0 C-15.71133682 -7.49112605 -8.02130815 -5.07470515 0 0 Z M-19 1 C-18.67 2.65 -18.34 4.3 -18 6 C-14.85069107 7.04976964 -12.61185544 7.10131595 -9.3125 7.0625 C-8.31863281 7.05347656 -7.32476562 7.04445313 -6.30078125 7.03515625 C-5.54152344 7.02355469 -4.78226563 7.01195312 -4 7 C-3.3185177 5.10820797 -3.3185177 5.10820797 -3 3 C-5.2551922 0.7448078 -7.0047587 0.02276532 -10 -1 C-13.38023517 -1 -15.83468937 -0.12544378 -19 1 Z " fill="#000000" transform="translate(25,7)"/>
<path d="M0 0 C4.42223616 2.29902186 7.12406288 6.04217153 9.5546875 10.328125 C9.5546875 13.828125 9.5546875 13.828125 8.5546875 16.328125 C7.5546875 17.328125 7.5546875 17.328125 4.6171875 17.640625 C-1.03905646 17.58195027 -7.43797573 15.33546177 -11.4453125 11.328125 C-11.36620649 7.05640059 -11.13600664 5.01881914 -8.0703125 1.953125 C-3.40429122 -0.93536436 -3.40429122 -0.93536436 0 0 Z M-5.6328125 5.140625 C-7.76432143 7.23966419 -7.76432143 7.23966419 -7.4453125 10.328125 C-5.7953125 10.328125 -4.1453125 10.328125 -2.4453125 10.328125 C-2.4453125 10.988125 -2.4453125 11.648125 -2.4453125 12.328125 C0.46069011 13.58477478 2.35073334 14.328125 5.5546875 14.328125 C5.5546875 13.008125 5.5546875 11.688125 5.5546875 10.328125 C4.8946875 10.328125 4.2346875 10.328125 3.5546875 10.328125 C3.2659375 9.73 2.9771875 9.131875 2.6796875 8.515625 C1.50726724 6.13484708 1.50726724 6.13484708 -0.4453125 3.328125 C-3.53377331 3.00911607 -3.53377331 3.00911607 -5.6328125 5.140625 Z " fill="#000000" transform="translate(68.4453125,2.671875)"/>
<path d="M0 0 C1.0725 0.268125 2.145 0.53625 3.25 0.8125 C6 2 6 2 7.375 3.8125 C8.11508342 6.40279197 8.34357779 8.32009322 8 11 C6.8125 12.8125 6.8125 12.8125 5 14 C2.17405433 14.27570202 0.54867169 14.27433584 -2 13 C-2.99 12.855625 -3.98 12.71125 -5 12.5625 C-8 12 -8 12 -10 10 C-10.67973856 2.8627451 -10.67973856 2.8627451 -8.375 -0.0625 C-5.15371158 -1.33406122 -3.33278389 -0.86652381 0 0 Z M-6 3 C-7.01111093 6.04913228 -7.01111093 6.04913228 -6 9 C-5.0925 8.979375 -4.185 8.95875 -3.25 8.9375 C-0.57327412 8.9889755 1.46988052 9.2215017 4 10 C3.89386164 7.54775306 3.89386164 7.54775306 3 5 C-0.27728249 3.13992075 -2.1659754 3 -6 3 Z " fill="#000000" transform="translate(70,49)"/>
<path d="M0 0 C2.65411092 0.73996081 3.70809967 1.45212108 5.33984375 3.65234375 C5.65234375 6.71484375 5.65234375 6.71484375 5.33984375 9.65234375 C2.30209887 12.69008863 -0.56199014 12.73439026 -4.72265625 12.90234375 C-8.66015625 12.65234375 -8.66015625 12.65234375 -10.66015625 11.52734375 C-12.16426225 8.707145 -12.10928474 6.79624319 -11.66015625 3.65234375 C-8.8245597 -1.37439559 -5.11411185 -0.56139874 0 0 Z M-6.66015625 3.65234375 C-6.99015625 5.30234375 -7.32015625 6.95234375 -7.66015625 8.65234375 C-4.8719197 9.68502395 -3.79242885 9.69743668 -0.91015625 8.71484375 C-0.16765625 8.36421875 0.57484375 8.01359375 1.33984375 7.65234375 C1.33984375 6.66234375 1.33984375 5.67234375 1.33984375 4.65234375 C-1.30015625 4.32234375 -3.94015625 3.99234375 -6.66015625 3.65234375 Z " fill="#000000" transform="translate(13.66015625,47.34765625)"/>
<path d="M0 0 C3.3 0 6.6 0 10 0 C10 0.99 10 1.98 10 3 C6.7 3 3.4 3 0 3 C0 2.01 0 1.02 0 0 Z " fill="#000000" transform="translate(35,52)"/>
<path d="M0 0 C0.99 0.33 1.98 0.66 3 1 C2.67 1.99 2.34 2.98 2 4 C1.01 3.67 0.02 3.34 -1 3 C-0.67 2.01 -0.34 1.02 0 0 Z " fill="#000000" transform="translate(64,38)"/>
<path d="M0 0 C0.99 0.33 1.98 0.66 3 1 C2.67 1.99 2.34 2.98 2 4 C1.34 4 0.68 4 0 4 C0 2.68 0 1.36 0 0 Z " fill="#000000" transform="translate(55,53)"/>
<path d="M0 0 C0.99 0.33 1.98 0.66 3 1 C3 1.66 3 2.32 3 3 C1.68 3 0.36 3 -1 3 C-0.67 2.01 -0.34 1.02 0 0 Z " fill="#000000" transform="translate(4,42)"/>
<path d="M0 0 C0.99 0.33 1.98 0.66 3 1 C3 1.66 3 2.32 3 3 C1.68 3 0.36 3 -1 3 C-0.67 2.01 -0.34 1.02 0 0 Z " fill="#000000" transform="translate(9,32)"/>
<path d="M0 0 C0.99 0 1.98 0 3 0 C3 0.99 3 1.98 3 3 C2.01 3 1.02 3 0 3 C0 2.01 0 1.02 0 0 Z " fill="#000000" transform="translate(22,56)"/>
<path d="M0 0 C0.99 0 1.98 0 3 0 C3 0.99 3 1.98 3 3 C2.01 3 1.02 3 0 3 C0 2.01 0 1.02 0 0 Z " fill="#000000" transform="translate(15,42)"/>
<path d="M0 0 C0.99 0 1.98 0 3 0 C3 0.99 3 1.98 3 3 C2.01 3 1.02 3 0 3 C0 2.01 0 1.02 0 0 Z " fill="#000000" transform="translate(72,41)"/>
<path d="M0 0 C0.99 0 1.98 0 3 0 C3 0.99 3 1.98 3 3 C2.01 3 1.02 3 0 3 C0 2.01 0 1.02 0 0 Z " fill="#000000" transform="translate(70,31)"/>
<path d="M0 0 C0.99 0 1.98 0 3 0 C3 0.99 3 1.98 3 3 C2.01 3 1.02 3 0 3 C0 2.01 0 1.02 0 0 Z " fill="#000000" transform="translate(15,25)"/>
<path d="M0 0 C0.99 0 1.98 0 3 0 C3 0.99 3 1.98 3 3 C2.01 3 1.02 3 0 3 C0 2.01 0 1.02 0 0 Z " fill="#000000" transform="translate(62,21)"/>
<path d="M0 0 C0.99 0 1.98 0 3 0 C3 0.99 3 1.98 3 3 C2.01 3 1.02 3 0 3 C0 2.01 0 1.02 0 0 Z " fill="#000000" transform="translate(11,10)"/>
<path d="M0 0 C0.99 0 1.98 0 3 0 C3 0.99 3 1.98 3 3 C2.01 3 1.02 3 0 3 C0 2.01 0 1.02 0 0 Z " fill="#000000" transform="translate(40,6)"/>
</svg>
