<?xml version="1.0" encoding="UTF-8"?>
<svg version="1.1" xmlns="http://www.w3.org/2000/svg" width="80" height="80">
<path d="M0 0 C6.90699443 5.09736189 9.22748991 10.97868443 10.5 19.25 C9.5741684 26.19373696 6.88685539 33.16971692 3 39 C7.29 39.33 11.58 39.66 16 40 C18.87465395 46.39027804 21.62252664 52.81680196 24.25 59.3125 C24.61351563 60.19228516 24.97703125 61.07207031 25.3515625 61.97851562 C25.69445312 62.82736328 26.03734375 63.67621094 26.390625 64.55078125 C26.70032227 65.31044189 27.01001953 66.07010254 27.32910156 66.8527832 C28 69 28 69 28 73 C1.6 73 -24.8 73 -52 73 C-51.23153577 68.3892146 -50.40075903 65.02280578 -48.75 60.76171875 C-48.3065625 59.61251953 -47.863125 58.46332031 -47.40625 57.27929688 C-46.9421875 56.09400391 -46.478125 54.90871094 -46 53.6875 C-45.5359375 52.48287109 -45.071875 51.27824219 -44.59375 50.03710938 C-41.14210829 41.14210829 -41.14210829 41.14210829 -40 40 C-37.81707226 39.76518307 -35.62796826 39.58636677 -33.4375 39.4375 C-32.23996094 39.35371094 -31.04242187 39.26992188 -29.80859375 39.18359375 C-28.88175781 39.12300781 -27.95492188 39.06242187 -27 39 C-27.42152344 38.18015625 -27.84304687 37.3603125 -28.27734375 36.515625 C-28.82519531 35.43796875 -29.37304688 34.3603125 -29.9375 33.25 C-30.48277344 32.18265625 -31.02804688 31.1153125 -31.58984375 30.015625 C-34.48160213 23.83158769 -34.77485842 18.11674474 -32.9375 11.5 C-30.86480696 5.82430784 -27.31198832 1.86133744 -22.046875 -1.09765625 C-14.61424376 -4.24335648 -7.06367993 -3.96978812 0 0 Z M-25.375 10.625 C-27.68024382 15.4128141 -28.11189057 18.78215209 -27 24 C-23.6457516 32.89594925 -18.60583372 41.3556813 -13 49 C-8.80861419 47.6028714 -7.66756216 44.6457141 -5.5625 41 C-4.96417358 39.97386597 -4.96417358 39.97386597 -4.35375977 38.92700195 C-3.21976517 36.95990647 -2.10521476 34.98338112 -1 33 C-0.51273438 32.12730469 -0.02546875 31.25460938 0.4765625 30.35546875 C3.15758859 25.00306056 3.99219487 19.94304481 3 14 C0.67031069 9.16141452 -2.16141452 6.32968931 -7 4 C-15.08318468 2.70985 -19.85535396 4.52433859 -25.375 10.625 Z M-36 46 C-37.17495143 48.93425371 -38.33850852 51.87289513 -39.5 54.8125 C-39.83386719 55.64587891 -40.16773438 56.47925781 -40.51171875 57.33789062 C-40.82753906 58.14033203 -41.14335938 58.94277344 -41.46875 59.76953125 C-41.90864258 60.87711792 -41.90864258 60.87711792 -42.35742188 62.00708008 C-43.15343666 64.12688312 -43.15343666 64.12688312 -43 67 C-22.54 67 -2.08 67 19 67 C18.33577702 63.67888508 17.76292144 61.08168801 16.58984375 58.01171875 C16.18862305 56.95307617 16.18862305 56.95307617 15.77929688 55.87304688 C15.50150391 55.15181641 15.22371094 54.43058594 14.9375 53.6875 C14.51500977 52.57665039 14.51500977 52.57665039 14.08398438 51.44335938 C13.39281425 49.62757345 12.69688311 47.81360101 12 46 C7.22747253 45.47044558 2.74957935 45.19246526 -2 46 C-4.23804527 48.14443881 -5.36297573 50.17101721 -6.7734375 52.9140625 C-8 55 -8 55 -11.125 56.3125 C-14 56 -14 56 -16.125 54.4375 C-18 52 -18 52 -19.375 48.75 C-21.7604242 45.66301407 -21.7604242 45.66301407 -25.3671875 45.6171875 C-28.9294564 45.62435504 -32.44748818 45.74353524 -36 46 Z " fill="#313131" transform="translate(52,5)"/>
<path d="M0 0 C3.02508145 1.73602105 5.41790069 3.83580137 7 7 C7.68128376 13.81283762 7.68128376 13.81283762 5.953125 16.82421875 C2.82207185 20.62752744 1.13366332 21.88663367 -3.75 22.375 C-7.10058068 22.35058775 -8.84894532 21.75601354 -11.4375 19.625 C-14.88331435 16.0951414 -15.39555836 14.0716348 -15.359375 9.10546875 C-14.72418186 5.38406547 -12.66020984 3.59687151 -10 1 C-6.77140153 -0.61429923 -3.49006347 -0.59570657 0 0 Z M-7.25 7.9375 C-8.11625 8.9584375 -8.11625 8.9584375 -9 10 C-7.94525335 13.69460876 -7.94525335 13.69460876 -5.125 16.0625 C-2.77383252 16.21665306 -2.77383252 16.21665306 -0.75 14.0625 C-0.1725 13.381875 0.405 12.70125 1 12 C-0.05474665 8.30539124 -0.05474665 8.30539124 -2.875 5.9375 C-5.22616748 5.78334694 -5.22616748 5.78334694 -7.25 7.9375 Z " fill="#303030" transform="translate(44,13)"/>
</svg>
