<?xml version="1.0" encoding="UTF-8"?>
<svg version="1.1" xmlns="http://www.w3.org/2000/svg" width="80" height="80">
<path d="M0 0 C0.845625 -0.00773438 1.69125 -0.01546875 2.5625 -0.0234375 C5 0.375 5 0.375 9 3.375 C14.94 2.88 14.94 2.88 21 2.375 C21 20.195 21 38.015 21 56.375 C-0.53195579 60.41224171 -0.53195579 60.41224171 -12.5234375 57.83203125 C-22.35813895 56.01711 -31.05654439 58.51060207 -41 60.375 C-41 42.885 -41 25.395 -41 7.375 C-31.90226211 4.3424207 -24.08046869 3.0841355 -14.53369141 3.53662109 C-8.56635276 3.7192202 -5.7718337 -0.05279116 0 0 Z M-9 8.375 C-10.27176914 14.8610226 -7.23469048 19.93525291 -4 25.375 C-3.02175826 26.72437796 -2.02823707 28.06331928 -1 29.375 C2.77254215 28.11748595 3.17480476 26.88099175 5.125 23.5 C5.64320312 22.61570312 6.16140625 21.73140625 6.6953125 20.8203125 C8.9778649 16.54223525 9.49888389 13.19754427 9 8.375 C7.01216563 5.45536827 5.5685303 3.76397022 2.0625 2.89453125 C-3.20205839 2.52561333 -5.94886975 3.89365244 -9 8.375 Z M-39 9.375 C-39 24.885 -39 40.395 -39 56.375 C-33.24374722 55.81390438 -33.24374722 55.81390438 -27.5625 54.8125 C-21.44338045 53.76777227 -15.50180885 54.17574678 -9.4375 55.375 C1.05274638 57.41151431 7.91028926 55.75136659 19 53.375 C19 37.865 19 22.355 19 6.375 C16.69 6.705 14.38 7.035 12 7.375 C11.99742188 7.96925781 11.99484375 8.56351563 11.9921875 9.17578125 C11.63772073 16.77318567 8.98327775 21.9957657 5 28.375 C4.59910156 29.04402344 4.19820312 29.71304688 3.78515625 30.40234375 C2.75 32.0625 2.75 32.0625 1 34.375 C0.34 34.375 -0.32 34.375 -1 34.375 C-2.42812215 32.3161239 -3.7279824 30.27729066 -5 28.125 C-5.35578125 27.53847656 -5.7115625 26.95195313 -6.078125 26.34765625 C-9.03311514 21.44104948 -11.17147441 17.86965749 -11.625 12.125 C-11.69976562 11.23296875 -11.77453125 10.3409375 -11.8515625 9.421875 C-11.90054688 8.74640625 -11.94953125 8.0709375 -12 7.375 C-14.31 7.045 -16.62 6.715 -19 6.375 C-19 7.035 -19 7.695 -19 8.375 C-19.66 8.375 -20.32 8.375 -21 8.375 C-21 7.715 -21 7.055 -21 6.375 C-27.08276253 6.375 -33.05226011 8.10048431 -39 9.375 Z " fill="#000000" transform="translate(50,8.625)"/>
<path d="M0 0 C3 0.125 3 0.125 4 1.125 C4.125 4.125 4.125 4.125 4 7.125 C3 8.125 3 8.125 0 8.25 C-3 8.125 -3 8.125 -4 7.125 C-4.125 4.125 -4.125 4.125 -4 1.125 C-3 0.125 -3 0.125 0 0 Z M-1 3.125 C-1 3.785 -1 4.445 -1 5.125 C-0.34 5.125 0.32 5.125 1 5.125 C1 4.465 1 3.805 1 3.125 C0.34 3.125 -0.32 3.125 -1 3.125 Z " fill="#000000" transform="translate(50,16.875)"/>
<path d="M0 0 C0.66 0 1.32 0 2 0 C2 0.66 2 1.32 2 2 C1.34 2 0.68 2 0 2 C0 1.34 0 0.68 0 0 Z " fill="#000000" transform="translate(49,62)"/>
<path d="M0 0 C0.66 0 1.32 0 2 0 C2 0.66 2 1.32 2 2 C1.34 2 0.68 2 0 2 C0 1.34 0 0.68 0 0 Z " fill="#000000" transform="translate(29,59)"/>
<path d="M0 0 C0.66 0 1.32 0 2 0 C2 0.66 2 1.32 2 2 C1.34 2 0.68 2 0 2 C0 1.34 0 0.68 0 0 Z " fill="#000000" transform="translate(49,58)"/>
<path d="M0 0 C0.66 0 1.32 0 2 0 C2 0.66 2 1.32 2 2 C1.34 2 0.68 2 0 2 C0 1.34 0 0.68 0 0 Z " fill="#000000" transform="translate(29,55)"/>
<path d="M0 0 C0.66 0 1.32 0 2 0 C2 0.66 2 1.32 2 2 C1.34 2 0.68 2 0 2 C0 1.34 0 0.68 0 0 Z " fill="#000000" transform="translate(49,54)"/>
<path d="M0 0 C0.66 0 1.32 0 2 0 C2 0.66 2 1.32 2 2 C1.34 2 0.68 2 0 2 C0 1.34 0 0.68 0 0 Z " fill="#000000" transform="translate(29,51)"/>
<path d="M0 0 C0.66 0 1.32 0 2 0 C2 0.66 2 1.32 2 2 C1.34 2 0.68 2 0 2 C0 1.34 0 0.68 0 0 Z " fill="#000000" transform="translate(49,50)"/>
<path d="M0 0 C0.66 0 1.32 0 2 0 C2 0.66 2 1.32 2 2 C1.34 2 0.68 2 0 2 C0 1.34 0 0.68 0 0 Z " fill="#000000" transform="translate(29,47)"/>
<path d="M0 0 C0.66 0 1.32 0 2 0 C2 0.66 2 1.32 2 2 C1.34 2 0.68 2 0 2 C0 1.34 0 0.68 0 0 Z " fill="#000000" transform="translate(49,46)"/>
<path d="M0 0 C0.66 0 1.32 0 2 0 C2 0.66 2 1.32 2 2 C1.34 2 0.68 2 0 2 C0 1.34 0 0.68 0 0 Z " fill="#000000" transform="translate(29,43)"/>
<path d="M0 0 C0.66 0 1.32 0 2 0 C2 0.66 2 1.32 2 2 C1.34 2 0.68 2 0 2 C0 1.34 0 0.68 0 0 Z " fill="#000000" transform="translate(29,39)"/>
<path d="M0 0 C0.66 0 1.32 0 2 0 C2 0.66 2 1.32 2 2 C1.34 2 0.68 2 0 2 C0 1.34 0 0.68 0 0 Z " fill="#000000" transform="translate(29,35)"/>
<path d="M0 0 C0.66 0 1.32 0 2 0 C2 0.66 2 1.32 2 2 C1.34 2 0.68 2 0 2 C0 1.34 0 0.68 0 0 Z " fill="#000000" transform="translate(29,31)"/>
<path d="M0 0 C0.66 0 1.32 0 2 0 C2 0.66 2 1.32 2 2 C1.34 2 0.68 2 0 2 C0 1.34 0 0.68 0 0 Z " fill="#000000" transform="translate(29,27)"/>
<path d="M0 0 C0.66 0 1.32 0 2 0 C2 0.66 2 1.32 2 2 C1.34 2 0.68 2 0 2 C0 1.34 0 0.68 0 0 Z " fill="#000000" transform="translate(29,23)"/>
<path d="M0 0 C0.66 0 1.32 0 2 0 C2 0.66 2 1.32 2 2 C1.34 2 0.68 2 0 2 C0 1.34 0 0.68 0 0 Z " fill="#000000" transform="translate(29,19)"/>
</svg>
