<?xml version="1.0" encoding="UTF-8"?>
<svg version="1.1" xmlns="http://www.w3.org/2000/svg" width="50" height="50">
<path d="M0 0 C16.5 0 33 0 50 0 C50 11.88 50 23.76 50 36 C33.16779585 36.74994969 16.8094961 37.02219909 0 36 C0 24.12 0 12.24 0 0 Z M2 3 C1.89987599 5.20650656 1.8691882 7.41622386 1.8671875 9.625 C1.86623077 10.28709473 1.86527405 10.94918945 1.86428833 11.63134766 C1.86360674 13.03352961 1.86545958 14.4357147 1.86962891 15.83789062 C1.87497754 17.99095713 1.8696833 20.14381502 1.86328125 22.296875 C1.86394204 23.65625046 1.86522321 25.0156258 1.8671875 26.375 C1.86831543 27.62023437 1.86944336 28.86546875 1.87060547 30.1484375 C1.67427873 32.89905431 1.67427873 32.89905431 3 34 C4.56172745 34.08685603 6.12729344 34.10702219 7.69140625 34.09765625 C8.63564453 34.09443359 9.57988281 34.09121094 10.55273438 34.08789062 C12.04256836 34.07532227 12.04256836 34.07532227 13.5625 34.0625 C14.55958984 34.05798828 15.55667969 34.05347656 16.58398438 34.04882812 C19.05604849 34.03700007 21.52799518 34.02051849 24 34 C24.02465504 29.60343827 24.04283842 25.2069128 24.05493164 20.81030273 C24.05997121 19.31355082 24.06680287 17.81680384 24.07543945 16.32006836 C24.08752159 14.17300193 24.09323191 12.02600038 24.09765625 9.87890625 C24.10289307 8.5854126 24.10812988 7.29191895 24.11352539 5.95922852 C24.33996932 3.11347596 24.33996932 3.11347596 23 2 C21.52347336 1.90119203 20.04232764 1.86920755 18.5625 1.8671875 C17.66789062 1.86589844 16.77328125 1.86460938 15.8515625 1.86328125 C14.44003906 1.86908203 14.44003906 1.86908203 13 1.875 C12.05898437 1.87113281 11.11796875 1.86726562 10.1484375 1.86328125 C8.80652344 1.86521484 8.80652344 1.86521484 7.4375 1.8671875 C6.19806641 1.86887939 6.19806641 1.86887939 4.93359375 1.87060547 C2.99320961 1.78735193 2.99320961 1.78735193 2 3 Z M26 3 C25.91209025 5.29151417 25.89305962 7.58572524 25.90234375 9.87890625 C25.9037587 10.5655687 25.90517365 11.25223114 25.90663147 11.95970154 C25.91224521 14.16067801 25.92479993 16.36155409 25.9375 18.5625 C25.94251324 20.05143083 25.94707645 21.54036324 25.95117188 23.02929688 C25.96221907 26.68623075 25.97949287 30.34310558 26 34 C29.47914941 34.02887814 32.95826831 34.04675687 36.4375 34.0625 C37.43072266 34.07087891 38.42394531 34.07925781 39.44726562 34.08789062 C40.39150391 34.09111328 41.33574219 34.09433594 42.30859375 34.09765625 C43.62041626 34.10551147 43.62041626 34.10551147 44.95874023 34.11352539 C46.99440206 34.22784809 46.99440206 34.22784809 48 33 C48.10012401 30.79349344 48.1308118 28.58377614 48.1328125 26.375 C48.13376923 25.71290527 48.13472595 25.05081055 48.13571167 24.36865234 C48.13639326 22.96647039 48.13454042 21.5642853 48.13037109 20.16210938 C48.12502246 18.00904287 48.1303167 15.85618498 48.13671875 13.703125 C48.13605796 12.34374954 48.13477679 10.9843742 48.1328125 9.625 C48.13168457 8.37976563 48.13055664 7.13453125 48.12939453 5.8515625 C48.32572127 3.10094569 48.32572127 3.10094569 47 2 C45.52347336 1.90119203 44.04232764 1.86920755 42.5625 1.8671875 C41.66789062 1.86589844 40.77328125 1.86460938 39.8515625 1.86328125 C38.44003906 1.86908203 38.44003906 1.86908203 37 1.875 C36.05898438 1.87113281 35.11796875 1.86726562 34.1484375 1.86328125 C32.80652344 1.86521484 32.80652344 1.86521484 31.4375 1.8671875 C30.19806641 1.86887939 30.19806641 1.86887939 28.93359375 1.87060547 C26.99320961 1.78735193 26.99320961 1.78735193 26 3 Z " fill="#000000" transform="translate(0,7)"/>
<path d="M0 0 C3.63 0 7.26 0 11 0 C11 0.66 11 1.32 11 2 C7.37 2 3.74 2 0 2 C0 1.34 0 0.68 0 0 Z " fill="#000000" transform="translate(4,34)"/>
<path d="M0 0 C3.63 0 7.26 0 11 0 C11 0.66 11 1.32 11 2 C7.37 2 3.74 2 0 2 C0 1.34 0 0.68 0 0 Z " fill="#000000" transform="translate(4,29)"/>
<path d="M0 0 C3.63 0 7.26 0 11 0 C11 0.66 11 1.32 11 2 C7.37 2 3.74 2 0 2 C0 1.34 0 0.68 0 0 Z " fill="#000000" transform="translate(28,24)"/>
<path d="M0 0 C3.63 0 7.26 0 11 0 C11 0.66 11 1.32 11 2 C7.37 2 3.74 2 0 2 C0 1.34 0 0.68 0 0 Z " fill="#000000" transform="translate(4,24)"/>
<path d="M0 0 C3.63 0 7.26 0 11 0 C11 0.66 11 1.32 11 2 C7.37 2 3.74 2 0 2 C0 1.34 0 0.68 0 0 Z " fill="#000000" transform="translate(28,19)"/>
<path d="M0 0 C3.63 0 7.26 0 11 0 C11 0.66 11 1.32 11 2 C7.37 2 3.74 2 0 2 C0 1.34 0 0.68 0 0 Z " fill="#000000" transform="translate(4,19)"/>
<path d="M0 0 C3.63 0 7.26 0 11 0 C11 0.66 11 1.32 11 2 C7.37 2 3.74 2 0 2 C0 1.34 0 0.68 0 0 Z " fill="#000000" transform="translate(28,14)"/>
<path d="M0 0 C3.63 0 7.26 0 11 0 C11 0.66 11 1.32 11 2 C7.37 2 3.74 2 0 2 C0 1.34 0 0.68 0 0 Z " fill="#000000" transform="translate(4,14)"/>
<path d="M0 0 C0.66 0 1.32 0 2 0 C2 0.66 2 1.32 2 2 C1.34 2 0.68 2 0 2 C0 1.34 0 0.68 0 0 Z " fill="#000000" transform="translate(20,34)"/>
<path d="M0 0 C0.66 0 1.32 0 2 0 C2 0.66 2 1.32 2 2 C1.34 2 0.68 2 0 2 C0 1.34 0 0.68 0 0 Z " fill="#000000" transform="translate(20,29)"/>
<path d="M0 0 C0.66 0 1.32 0 2 0 C2 0.66 2 1.32 2 2 C1.34 2 0.68 2 0 2 C0 1.34 0 0.68 0 0 Z " fill="#000000" transform="translate(17,29)"/>
<path d="M0 0 C0.66 0 1.32 0 2 0 C2 0.66 2 1.32 2 2 C1.34 2 0.68 2 0 2 C0 1.34 0 0.68 0 0 Z " fill="#000000" transform="translate(44,24)"/>
<path d="M0 0 C0.66 0 1.32 0 2 0 C2 0.66 2 1.32 2 2 C1.34 2 0.68 2 0 2 C0 1.34 0 0.68 0 0 Z " fill="#000000" transform="translate(20,24)"/>
<path d="M0 0 C0.66 0 1.32 0 2 0 C2 0.66 2 1.32 2 2 C1.34 2 0.68 2 0 2 C0 1.34 0 0.68 0 0 Z " fill="#000000" transform="translate(44,19)"/>
<path d="M0 0 C0.66 0 1.32 0 2 0 C2 0.66 2 1.32 2 2 C1.34 2 0.68 2 0 2 C0 1.34 0 0.68 0 0 Z " fill="#000000" transform="translate(41,19)"/>
<path d="M0 0 C0.66 0 1.32 0 2 0 C2 0.66 2 1.32 2 2 C1.34 2 0.68 2 0 2 C0 1.34 0 0.68 0 0 Z " fill="#000000" transform="translate(20,19)"/>
<path d="M0 0 C0.66 0 1.32 0 2 0 C2 0.66 2 1.32 2 2 C1.34 2 0.68 2 0 2 C0 1.34 0 0.68 0 0 Z " fill="#000000" transform="translate(17,19)"/>
<path d="M0 0 C0.66 0 1.32 0 2 0 C2 0.66 2 1.32 2 2 C1.34 2 0.68 2 0 2 C0 1.34 0 0.68 0 0 Z " fill="#000000" transform="translate(44,14)"/>
<path d="M0 0 C0.66 0 1.32 0 2 0 C2 0.66 2 1.32 2 2 C1.34 2 0.68 2 0 2 C0 1.34 0 0.68 0 0 Z " fill="#000000" transform="translate(41,14)"/>
<path d="M0 0 C0.66 0 1.32 0 2 0 C2 0.66 2 1.32 2 2 C1.34 2 0.68 2 0 2 C0 1.34 0 0.68 0 0 Z " fill="#000000" transform="translate(20,14)"/>
<path d="M0 0 C0.66 0 1.32 0 2 0 C2 0.66 2 1.32 2 2 C1.34 2 0.68 2 0 2 C0 1.34 0 0.68 0 0 Z " fill="#000000" transform="translate(17,14)"/>
</svg>
